# xmcd
#
# Track frame offsets:
#	150
#	14636
#	29007
#	40930
#	51785
#	65063
#	77582
#	90130
#	103229
#	115951
#	128299
#	142746
#	157101
#	171588
#	182075
#	197361
#	212101
#	223589
#	236194
#	247041
#
# Disc length: 3533 seconds
#
# Revision: 2
# Processed by: cddbd v1.5.2PL0 Copyright (c) Steve Scherf et al.
# Submitted via: audiograbber 1.83.01
#
DISCID=1f0dcb14
DTITLE=100 Hits Presents 60's Karaoke (2/5) - 100 Hits Presents 60's Karaoke (2
DTITLE=/5)
DYEAR=2010
DGENRE=Karaoke
TTITLE0=Etta James (made famous by ~) (karaoke) - I just want to make love to y
TTITLE0=ou
TTITLE1=Lulu And The Luvvers (made famous by ~) (karaoke) - Shout
TTITLE2=Little Eva (made famous by ~) (karaoke) - The loco-motion
TTITLE3=Dusty Springfield (made famous by ~) (karaoke) - Son of a preacher man
TTITLE4=Mary Wells (made famous by ~) (karaoke) - My guy
TTITLE5=The Temptations (made famous by ~) (karaoke) - My girl
TTITLE6=Nancy Sinatra (made famous by ~) (karaoke) - These boots are made for w
TTITLE6=alkin'
TTITLE7=Patsy Cline (made famous by ~) (karaoke) - Crazy
TTITLE8=Tammy Wynette (made famous by ~) (karaoke) - Stand by your man
TTITLE9=Erma Franklin (made famous by ~) (karaoke) - (Take a little) Piece of m
TTITLE9=y heart
TTITLE10=The Supremes (made famous by ~) (karaoke) - Stop! In the name of love
TTITLE11=Martha And The Vandellas (made famous by ~) (karaoke) - Jimmy Mack
TTITLE12=Marvin Gaye and Kim Weston (made famous by ~) (karaoke) - It takes two
TTITLE13=The Crystals (made famous by ~) (karaoke) - Da doo ron ron
TTITLE14=The Union Gap feat. Gary Puckett (made famous by ~) (karaoke) - Young 
TTITLE14=girl
TTITLE15=Aretha Franklin (made famous by ~) (karaoke) - (You make me feel like)
TTITLE15=A natural woman
TTITLE16=The Ronettes (made famous by ~) (karaoke) - Be my baby
TTITLE17=The Shirelles (made famous by ~) (karaoke) - Will you love me tomorrow
TTITLE18=Lesley Gore (made famous by ~) (karaoke) - It's my party
TTITLE19=The Righteous Brothers (made famous by ~) (karaoke) - You've lost that
TTITLE19=lovin' feelin'
EXTD=Karaoke [CDG) Disc 2 of 5
EXTT0=
EXTT1=
EXTT2=
EXTT3=
EXTT4=
EXTT5=
EXTT6=
EXTT7=
EXTT8=
EXTT9=
EXTT10=
EXTT11=
EXTT12=
EXTT13=
EXTT14=
EXTT15=
EXTT16=
EXTT17=
EXTT18=
EXTT19=
PLAYORDER=
